<?xml version="1.0" encoding="UTF-8" standalone="no"?>
<svg
   xmlns:dc="http://purl.org/dc/elements/1.1/"
   xmlns:cc="http://creativecommons.org/ns#"
   xmlns:rdf="http://www.w3.org/1999/02/22-rdf-syntax-ns#"
   xmlns:svg="http://www.w3.org/2000/svg"
   xmlns="http://www.w3.org/2000/svg"
   xmlns:sodipodi="http://sodipodi.sourceforge.net/DTD/sodipodi-0.dtd"
   xmlns:inkscape="http://www.inkscape.org/namespaces/inkscape"
   inkscape:export-ydpi="460.95001"
   inkscape:export-xdpi="460.95001"
   inkscape:export-filename="/home/thockin/src/kubernetes/new.png"
   sodipodi:docname="logo.svg"
   inkscape:version="0.92.4 5da689c313, 2019-01-14"
   version="1.1"
   id="svg2"
   height="701.96637"
   width="722.8457">
  <defs
     id="defs4" />
  <sodipodi:namedview
     inkscape:document-rotation="0"
     fit-margin-bottom="10"
     fit-margin-right="10"
     fit-margin-left="10"
     fit-margin-top="10"
     inkscape:snap-global="false"
     inkscape:window-maximized="0"
     inkscape:window-y="46"
     inkscape:window-x="0"
     inkscape:window-height="1152"
     inkscape:window-width="1916"
     showgrid="false"
     inkscape:current-layer="g3052"
     inkscape:document-units="px"
     inkscape:cy="349.11277"
     inkscape:cx="370.77741"
     inkscape:zoom="1.0119068"
     inkscape:pageshadow="2"
     inkscape:pageopacity="0.0"
     borderopacity="1.0"
     bordercolor="#666666"
     pagecolor="#ffffff"
     id="base" />
  <metadata
     id="metadata7">
    <rdf:RDF>
      <cc:Work
         rdf:about="">
        <dc:format>image/svg+xml</dc:format>
        <dc:type
           rdf:resource="http://purl.org/dc/dcmitype/StillImage" />
        <dc:title />
      </cc:Work>
    </rdf:RDF>
  </metadata>
  <g
     transform="translate(-6.3260942,-174.7524)"
     id="layer1"
     inkscape:groupmode="layer"
     inkscape:label="Layer 1">
    <g
       id="g3052">
      <path
         inkscape:export-ydpi="250.55"
         inkscape:export-xdpi="250.55"
         inkscape:export-filename="new.png"
         inkscape:connector-curvature="0"
         id="path3055"
         d="m 365.3125,184.8125 a 46.724621,46.342246 0 0 0 -17.90625,4.53125 l -244.34375,116.75 a 46.724621,46.342246 0 0 0 -25.28125,31.4375 L 17.5,599.78125 A 46.724621,46.342246 0 0 0 23.84375,635.3125 46.724621,46.342246 0 0 0 26.5,639 l 169.125,210.28125 a 46.724621,46.342246 0 0 0 36.53125,17.4375 L 503.375,866.65625 A 46.724621,46.342246 0 0 0 539.90625,849.25 L 708.96875,638.9375 A 46.724621,46.342246 0 0 0 718,599.71875 l -60.375,-262.25 a 46.724621,46.342246 0 0 0 -25.28125,-31.4375 l -244.375,-116.6875 A 46.724621,46.342246 0 0 0 365.3125,184.8125 z"
         style="fill:#326ce5;fill-opacity:1;stroke:#ffffff;stroke-width:0;stroke-miterlimit:4;stroke-opacity:1;stroke-dasharray:none" />
      <circle
         r="152.18793"
         cy="537.7356"
         cx="367.74893"
         id="path255"
         style="fill:#326ce5;fill-rule:evenodd;fill-opacity:1" />
      <g
         transform="matrix(1.8795275,0,0,1.8795275,-309.09453,-476.10128)"
         id="g1269">
        <path
           inkscape:connector-curvature="0"
           id="path4786-1"
           d="m 420.11361,619.41049 -40,-20.00003 v -39.99999 l 40,20 z"
           style="fill:#ffffff;fill-opacity:1;fill-rule:evenodd;stroke:none;stroke-width:0.99999899px;stroke-linecap:butt;stroke-linejoin:miter;stroke-opacity:1" />
        <path
           inkscape:connector-curvature="0"
           id="path4670-5"
           d="m 340.11361,619.41049 v -40.00002 l 40,-20 v 39.99999 z"
           style="fill:#808080;fill-opacity:1;fill-rule:evenodd;stroke:none;stroke-width:0.99999899px;stroke-linecap:butt;stroke-linejoin:miter;stroke-opacity:1" />
        <path
           inkscape:connector-curvature="0"
           id="path4653-7"
           d="m 260.11361,499.41046 40,-19.99999 40,19.99999 -40,20.00001 z"
           style="fill:#bfbfbf;fill-opacity:1;fill-rule:evenodd;stroke:none;stroke-width:0.99999899px;stroke-linecap:butt;stroke-linejoin:miter;stroke-opacity:1" />
        <path
           inkscape:connector-curvature="0"
           id="path4653"
           d="m 300.11361,479.41047 40,-20 40,20 -40,20 z"
           style="fill:#bfbfbf;fill-opacity:1;fill-rule:evenodd;stroke:none;stroke-width:0.99999899px;stroke-linecap:butt;stroke-linejoin:miter;stroke-opacity:1" />
        <path
           inkscape:connector-curvature="0"
           id="path4653-3"
           d="m 340.11361,539.41046 40,-19.99999 40,19.99999 -40,20.00001 z"
           style="fill:#bfbfbf;fill-opacity:1;fill-rule:evenodd;stroke:none;stroke-width:0.99999899px;stroke-linecap:butt;stroke-linejoin:miter;stroke-opacity:1" />
        <path
           inkscape:connector-curvature="0"
           id="path4653-35"
           d="m 380.11361,479.41047 40,-20 40.00001,20 -40.00001,20 z"
           style="fill:#bfbfbf;fill-opacity:1;fill-rule:evenodd;stroke:none;stroke-width:0.99999899px;stroke-linecap:butt;stroke-linejoin:miter;stroke-opacity:1" />
        <path
           inkscape:connector-curvature="0"
           id="path4670-6-6"
           d="M 420.1136,539.41048 V 499.4105 l 40.00002,-20.00002 v 39.99999 z"
           style="fill:#808080;fill-opacity:1;fill-rule:evenodd;stroke:none;stroke-width:0.99999899px;stroke-linecap:butt;stroke-linejoin:miter;stroke-opacity:1" />
        <path
           inkscape:connector-curvature="0"
           id="path4670-6-6-2"
           d="m 420.1136,619.41049 v -40 l 40.00002,-20.00001 v 39.99998 z"
           style="fill:#808080;fill-opacity:1;fill-rule:evenodd;stroke:none;stroke-width:0.99999899px;stroke-linecap:butt;stroke-linejoin:miter;stroke-opacity:1" />
        <path
           inkscape:connector-curvature="0"
           id="path4653-35-9"
           d="m 380.11361,559.41047 40,-20 40.00001,20 -40.00001,20.00001 z"
           style="fill:#bfbfbf;fill-opacity:1;fill-rule:evenodd;stroke:none;stroke-width:0.99999899px;stroke-linecap:butt;stroke-linejoin:miter;stroke-opacity:1" />
        <path
           inkscape:connector-curvature="0"
           id="path3846"
           d="m 260.11361,539.41047 40,20 v 39.99999 l 40,20.00003 v -40.00002 l 40,19.99999 v -39.99999 l -40,-20 v -40 l -40,-20 v 40 l -40,-20 z"
           style="fill:#ffffff;fill-opacity:1;fill-rule:evenodd;stroke:none;stroke-width:0.99999899px;stroke-linecap:butt;stroke-linejoin:miter;stroke-opacity:1" />
        <path
           inkscape:connector-curvature="0"
           id="path4670-6"
           d="m 380.11361,599.41046 v -39.99999 l 40,-20.00001 v 39.99998 z"
           style="fill:#808080;fill-opacity:1;fill-rule:evenodd;stroke:none;stroke-width:0.99999899px;stroke-linecap:butt;stroke-linejoin:miter;stroke-opacity:1" />
        <path
           inkscape:connector-curvature="0"
           id="path4670"
           d="m 340.11361,539.41047 v -40 l 40,-20 v 40 z"
           style="fill:#808080;fill-opacity:1;fill-rule:evenodd;stroke:none;stroke-width:0.99999899px;stroke-linecap:butt;stroke-linejoin:miter;stroke-opacity:1" />
        <path
           inkscape:connector-curvature="0"
           id="path4786"
           d="m 420.11361,539.41047 -40,-20 v -40 l 40,20 z"
           style="fill:#ffffff;fill-opacity:1;fill-rule:evenodd;stroke:none;stroke-width:0.99999899px;stroke-linecap:butt;stroke-linejoin:miter;stroke-opacity:1" />
      </g>
    </g>
  </g>
</svg>
